# xmcd
#
# Track frame offsets:
# 150
# 11042
# 23434
# 35081
# 47272
# 61016
# 73826
# 85482
# 96521
# 114161
# 125717
# 138237
# 151152
# 159646
# 172242
# 181307
# 192343
# 204679
#
# Disc length: 2871 seconds
#
#
# Revision: 2
# Processed by: cddbd v1.5.1PL0 Copyright (c) Steve Scherf et al.
# Submitted via: FreeRIP 2.90 
#
DISCID=f70b3512
DTITLE=Hank Williams - Come September
DYEAR=2003
DGENRE=Country
TTITLE0=I Can't Help It (If I'm Still In Love With You)
TTITLE1=Move It On Over
TTITLE2=A Mansion On The Hill
TTITLE3=Lost Highway
TTITLE4=Ramblin' Man
TTITLE5=I Can't Get You Off My Mind
TTITLE6=Weary Blues From Waitin'
TTITLE7=(I Heard That) Lonesome Whistle
TTITLE8=Cool Water
TTITLE9=My Son Calls Another Man Daddy
TTITLE10=I'm So Lonesome I Could Cry
TTITLE11=Pictures From Life's Other Side
TTITLE12=I'm Going Home
TTITLE13=There's A Tear In My Beer
TTITLE14=Alone and Forsaken
TTITLE15=I'll Never Get Out Of This World Alive
TTITLE16=I Saw The Light
TTITLE17=The Log Train
EXTD=
EXTT0=
EXTT1=Single Version
EXTT2=
EXTT3=Single Version
EXTT4=
EXTT5=
EXTT6=
EXTT7=Single Version
EXTT8=Undubbed Version
EXTT9=
EXTT10=
EXTT11=
EXTT12=
EXTT13=
EXTT14=
EXTT15=
EXTT16=Single Version
EXTT17=
PLAYORDER=
